<mxfile host="app.diagrams.net" agent="Mozilla/5.0 (Windows NT 10.0; Win64; x64) AppleWebKit/537.36 (KHTML, like Gecko) Chrome/137.0.0.0 Safari/537.36" version="27.1.6">
  <diagram name="P치gina-1" id="cywcWZN6CDEDMyV-TE8t">
    <mxGraphModel grid="1" page="1" gridSize="10" guides="1" tooltips="1" connect="1" arrows="1" fold="1" pageScale="1" pageWidth="827" pageHeight="1169" math="0" shadow="0">
      <root>
        <mxCell id="0" />
        <mxCell id="1" parent="0" />
        <mxCell id="jA-c9X2n4fFjEjbLf546-1" value="Usuario" style="html=1;whiteSpace=wrap;" vertex="1" parent="1">
          <mxGeometry x="56.25" y="50" width="110" height="50" as="geometry" />
        </mxCell>
        <mxCell id="jA-c9X2n4fFjEjbLf546-2" value="Sistema&lt;span style=&quot;color: rgba(0, 0, 0, 0); font-family: monospace; font-size: 0px; text-align: start; text-wrap-mode: nowrap;&quot;&gt;%3CmxGraphModel%3E%3Croot%3E%3CmxCell%20id%3D%220%22%2F%3E%3CmxCell%20id%3D%221%22%20parent%3D%220%22%2F%3E%3CmxCell%20id%3D%222%22%20value%3D%22Usuario%22%20style%3D%22html%3D1%3BwhiteSpace%3Dwrap%3B%22%20vertex%3D%221%22%20parent%3D%221%22%3E%3CmxGeometry%20x%3D%2270%22%20y%3D%2240%22%20width%3D%22110%22%20height%3D%2250%22%20as%3D%22geometry%22%2F%3E%3C%2FmxCell%3E%3C%2Froot%3E%3C%2FmxGraphModel%3E&lt;/span&gt;" style="html=1;whiteSpace=wrap;" vertex="1" parent="1">
          <mxGeometry x="256.25" y="50" width="110" height="50" as="geometry" />
        </mxCell>
        <mxCell id="jA-c9X2n4fFjEjbLf546-3" value="Base de datos" style="html=1;whiteSpace=wrap;" vertex="1" parent="1">
          <mxGeometry x="447.5" y="50" width="110" height="50" as="geometry" />
        </mxCell>
        <mxCell id="jA-c9X2n4fFjEjbLf546-4" value="Usuario&amp;nbsp;" style="html=1;whiteSpace=wrap;" vertex="1" parent="1">
          <mxGeometry x="50" y="690" width="110" height="50" as="geometry" />
        </mxCell>
        <mxCell id="jA-c9X2n4fFjEjbLf546-5" value="Sistema&lt;span style=&quot;color: rgba(0, 0, 0, 0); font-family: monospace; font-size: 0px; text-align: start; text-wrap-mode: nowrap;&quot;&gt;%3CmxGraphModel%3E%3Croot%3E%3CmxCell%20id%3D%220%22%2F%3E%3CmxCell%20id%3D%221%22%20parent%3D%220%22%2F%3E%3CmxCell%20id%3D%222%22%20value%3D%22Usuario%22%20style%3D%22html%3D1%3BwhiteSpace%3Dwrap%3B%22%20vertex%3D%221%22%20parent%3D%221%22%3E%3CmxGeometry%20x%3D%2270%22%20y%3D%2240%22%20width%3D%22110%22%20height%3D%2250%22%20as%3D%22geometry%22%2F%3E%3C%2FmxCell%3E%3C%2Froot%3E%3C%2FmxGraphModel%3E&lt;/span&gt;" style="html=1;whiteSpace=wrap;" vertex="1" parent="1">
          <mxGeometry x="256.25" y="690" width="110" height="50" as="geometry" />
        </mxCell>
        <mxCell id="jA-c9X2n4fFjEjbLf546-6" value="Base de datos" style="html=1;whiteSpace=wrap;" vertex="1" parent="1">
          <mxGeometry x="447.5" y="690" width="110" height="50" as="geometry" />
        </mxCell>
        <mxCell id="jA-c9X2n4fFjEjbLf546-7" value="" style="endArrow=none;dashed=1;html=1;rounded=0;entryX=0.5;entryY=1;entryDx=0;entryDy=0;exitX=0.5;exitY=0;exitDx=0;exitDy=0;" edge="1" parent="1" source="jA-c9X2n4fFjEjbLf546-8" target="jA-c9X2n4fFjEjbLf546-2">
          <mxGeometry width="50" height="50" relative="1" as="geometry">
            <mxPoint x="286.25" y="330" as="sourcePoint" />
            <mxPoint x="336.25" y="280" as="targetPoint" />
          </mxGeometry>
        </mxCell>
        <mxCell id="jA-c9X2n4fFjEjbLf546-8" value="" style="html=1;points=[[0,0,0,0,5],[0,1,0,0,-5],[1,0,0,0,5],[1,1,0,0,-5]];perimeter=orthogonalPerimeter;outlineConnect=0;targetShapes=umlLifeline;portConstraint=eastwest;newEdgeStyle={&quot;curved&quot;:0,&quot;rounded&quot;:0};" vertex="1" parent="1">
          <mxGeometry x="306.25" y="140" width="10" height="30" as="geometry" />
        </mxCell>
        <mxCell id="jA-c9X2n4fFjEjbLf546-9" value="" style="endArrow=classic;html=1;rounded=0;entryX=0;entryY=0;entryDx=0;entryDy=5;entryPerimeter=0;" edge="1" parent="1" target="jA-c9X2n4fFjEjbLf546-8">
          <mxGeometry width="50" height="50" relative="1" as="geometry">
            <mxPoint x="106.25" y="145" as="sourcePoint" />
            <mxPoint x="216.25" y="120" as="targetPoint" />
          </mxGeometry>
        </mxCell>
        <mxCell id="jA-c9X2n4fFjEjbLf546-10" value="1. Accede al apartado &quot;Contratos&quot;" style="text;html=1;align=center;verticalAlign=middle;whiteSpace=wrap;rounded=0;" vertex="1" parent="1">
          <mxGeometry x="106.25" y="120" width="200" height="20" as="geometry" />
        </mxCell>
        <mxCell id="jA-c9X2n4fFjEjbLf546-11" value="" style="endArrow=none;dashed=1;html=1;rounded=0;exitX=0.449;exitY=-0.016;exitDx=0;exitDy=0;exitPerimeter=0;entryX=0.442;entryY=1.036;entryDx=0;entryDy=0;entryPerimeter=0;" edge="1" parent="1" source="jA-c9X2n4fFjEjbLf546-15" target="jA-c9X2n4fFjEjbLf546-1">
          <mxGeometry width="50" height="50" relative="1" as="geometry">
            <mxPoint x="100.25" y="899" as="sourcePoint" />
            <mxPoint x="98.58000000000004" y="210.51" as="targetPoint" />
            <Array as="points" />
          </mxGeometry>
        </mxCell>
        <mxCell id="jA-c9X2n4fFjEjbLf546-12" value="5. Notificaci칩n de error: Archivo inv치lido" style="text;html=1;align=center;verticalAlign=middle;whiteSpace=wrap;rounded=0;" vertex="1" parent="1">
          <mxGeometry x="117.75" y="430" width="190" height="20" as="geometry" />
        </mxCell>
        <mxCell id="jA-c9X2n4fFjEjbLf546-13" value="" style="endArrow=none;dashed=1;html=1;rounded=0;" edge="1" parent="1" source="jA-c9X2n4fFjEjbLf546-32" target="jA-c9X2n4fFjEjbLf546-18">
          <mxGeometry width="50" height="50" relative="1" as="geometry">
            <mxPoint x="311.25" y="400" as="sourcePoint" />
            <mxPoint x="316.25" y="390" as="targetPoint" />
            <Array as="points" />
          </mxGeometry>
        </mxCell>
        <mxCell id="jA-c9X2n4fFjEjbLf546-14" value="" style="endArrow=none;dashed=1;html=1;rounded=0;" edge="1" parent="1" source="jA-c9X2n4fFjEjbLf546-18" target="jA-c9X2n4fFjEjbLf546-8">
          <mxGeometry width="50" height="50" relative="1" as="geometry">
            <mxPoint x="311.25" y="280" as="sourcePoint" />
            <mxPoint x="319" y="190" as="targetPoint" />
          </mxGeometry>
        </mxCell>
        <mxCell id="jA-c9X2n4fFjEjbLf546-15" value="" style="html=1;points=[[0,0,0,0,5],[0,1,0,0,-5],[1,0,0,0,5],[1,1,0,0,-5]];perimeter=orthogonalPerimeter;outlineConnect=0;targetShapes=umlLifeline;portConstraint=eastwest;newEdgeStyle={&quot;curved&quot;:0,&quot;rounded&quot;:0};" vertex="1" parent="1">
          <mxGeometry x="100" y="190" width="10" height="30" as="geometry" />
        </mxCell>
        <mxCell id="jA-c9X2n4fFjEjbLf546-16" value="" style="endArrow=classic;html=1;rounded=0;entryX=1;entryY=0;entryDx=0;entryDy=5;entryPerimeter=0;" edge="1" parent="1" target="jA-c9X2n4fFjEjbLf546-15">
          <mxGeometry width="50" height="50" relative="1" as="geometry">
            <mxPoint x="312.5" y="196" as="sourcePoint" />
            <mxPoint x="424.5" y="166" as="targetPoint" />
          </mxGeometry>
        </mxCell>
        <mxCell id="jA-c9X2n4fFjEjbLf546-17" value="2. Mostrar apartado" style="text;html=1;align=center;verticalAlign=middle;whiteSpace=wrap;rounded=0;" vertex="1" parent="1">
          <mxGeometry x="127.5" y="170" width="170" height="20" as="geometry" />
        </mxCell>
        <mxCell id="jA-c9X2n4fFjEjbLf546-18" value="" style="html=1;points=[[0,0,0,0,5],[0,1,0,0,-5],[1,0,0,0,5],[1,1,0,0,-5]];perimeter=orthogonalPerimeter;outlineConnect=0;targetShapes=umlLifeline;portConstraint=eastwest;newEdgeStyle={&quot;curved&quot;:0,&quot;rounded&quot;:0};" vertex="1" parent="1">
          <mxGeometry x="306.25" y="240" width="10" height="30" as="geometry" />
        </mxCell>
        <mxCell id="jA-c9X2n4fFjEjbLf546-19" value="" style="endArrow=classic;html=1;rounded=0;entryX=0;entryY=0;entryDx=0;entryDy=5;entryPerimeter=0;" edge="1" parent="1" target="jA-c9X2n4fFjEjbLf546-18">
          <mxGeometry width="50" height="50" relative="1" as="geometry">
            <mxPoint x="106.25" y="244" as="sourcePoint" />
            <mxPoint x="438.25" y="150" as="targetPoint" />
          </mxGeometry>
        </mxCell>
        <mxCell id="jA-c9X2n4fFjEjbLf546-20" value="3. Pulsar el bot칩n &quot;Cargar contrato&quot;" style="text;html=1;align=center;verticalAlign=middle;whiteSpace=wrap;rounded=0;" vertex="1" parent="1">
          <mxGeometry x="121.25" y="220" width="170" height="20" as="geometry" />
        </mxCell>
        <mxCell id="jA-c9X2n4fFjEjbLf546-21" value="&lt;span style=&quot;color: rgb(237, 237, 237); font-family: monospace; font-size: 0px; text-align: start;&quot;&gt;%3CmxGraphModel%3E%3Croot%3E%3CmxCell%20id%3D%220%22%2F%3E%3CmxCell%20id%3D%221%22%20parent%3D%220%22%2F%3E%3CmxCell%20id%3D%222%22%20value%3D%22%22%20style%3D%22html%3D1%3Bpoints%3D%5B%5B0%2C0%2C0%2C0%2C5%5D%2C%5B0%2C1%2C0%2C0%2C-5%5D%2C%5B1%2C0%2C0%2C0%2C5%5D%2C%5B1%2C1%2C0%2C0%2C-5%5D%5D%3Bperimeter%3DorthogonalPerimeter%3BoutlineConnect%3D0%3BtargetShapes%3DumlLifeline%3BportConstraint%3Deastwest%3BnewEdgeStyle%3D%7B%26quot%3Bcurved%26quot%3B%3A0%2C%26quot%3Brounded%26quot%3B%3A0%7D%3B%22%20vertex%3D%221%22%20parent%3D%221%22%3E%3CmxGeometry%20x%3D%2285%22%20y%3D%22280%22%20width%3D%2210%22%20height%3D%2230%22%20as%3D%22geometry%22%2F%3E%3C%2FmxCell%3E%3C%2Froot%3E%3C%2FmxGraphModel%3E&lt;/span&gt;&lt;span style=&quot;color: rgb(237, 237, 237); font-family: monospace; font-size: 0px; text-align: start;&quot;&gt;%3CmxGraphModel%3E%3Croot%3E%3CmxCell%20id%3D%220%22%2F%3E%3CmxCell%20id%3D%221%22%20parent%3D%220%22%2F%3E%3CmxCell%20id%3D%222%22%20value%3D%22%22%20style%3D%22html%3D1%3Bpoints%3D%5B%5B0%2C0%2C0%2C0%2C5%5D%2C%5B0%2C1%2C0%2C0%2C-5%5D%2C%5B1%2C0%2C0%2C0%2C5%5D%2C%5B1%2C1%2C0%2C0%2C-5%5D%5D%3Bperimeter%3DorthogonalPerimeter%3BoutlineConnect%3D0%3BtargetShapes%3DumlLifeline%3BportConstraint%3Deastwest%3BnewEdgeStyle%3D%7B%26quot%3Bcurved%26quot%3B%3A0%2C%26quot%3Brounded%26quot%3B%3A0%7D%3B%22%20vertex%3D%221%22%20parent%3D%221%22%3E%3CmxGeometry%20x%3D%2285%22%20y%3D%22280%22%20width%3D%2210%22%20height%3D%2230%22%20as%3D%22geometry%22%2F%3E%3C%2FmxCell%3E%3C%2Froot%3E%3C%2FmxGraphModel%3E&lt;/span&gt;" style="html=1;points=[[0,0,0,0,5],[0,1,0,0,-5],[1,0,0,0,5],[1,1,0,0,-5]];perimeter=orthogonalPerimeter;outlineConnect=0;targetShapes=umlLifeline;portConstraint=eastwest;newEdgeStyle={&quot;curved&quot;:0,&quot;rounded&quot;:0};" vertex="1" parent="1">
          <mxGeometry x="100" y="450" width="10" height="30" as="geometry" />
        </mxCell>
        <mxCell id="jA-c9X2n4fFjEjbLf546-22" value="" style="endArrow=none;dashed=1;html=1;rounded=0;exitX=0.5;exitY=0;exitDx=0;exitDy=0;entryX=0.5;entryY=1;entryDx=0;entryDy=0;" edge="1" parent="1" source="jA-c9X2n4fFjEjbLf546-6" target="jA-c9X2n4fFjEjbLf546-3">
          <mxGeometry width="50" height="50" relative="1" as="geometry">
            <mxPoint x="507.5" y="430" as="sourcePoint" />
            <mxPoint x="509" y="210" as="targetPoint" />
          </mxGeometry>
        </mxCell>
        <mxCell id="jA-c9X2n4fFjEjbLf546-23" value="" style="endArrow=none;dashed=1;html=1;rounded=0;exitX=0.449;exitY=-0.016;exitDx=0;exitDy=0;exitPerimeter=0;" edge="1" parent="1" source="jA-c9X2n4fFjEjbLf546-21" target="jA-c9X2n4fFjEjbLf546-15">
          <mxGeometry width="50" height="50" relative="1" as="geometry">
            <mxPoint x="100.25" y="666" as="sourcePoint" />
            <mxPoint x="98.24000000000001" y="390" as="targetPoint" />
            <Array as="points" />
          </mxGeometry>
        </mxCell>
        <mxCell id="jA-c9X2n4fFjEjbLf546-24" value="" style="endArrow=open;endSize=12;html=1;rounded=0;fontSize=12;curved=1;entryX=1;entryY=0;entryDx=0;entryDy=5;entryPerimeter=0;dashed=1;" edge="1" parent="1" target="jA-c9X2n4fFjEjbLf546-21">
          <mxGeometry width="160" relative="1" as="geometry">
            <mxPoint x="312.5" y="455" as="sourcePoint" />
            <mxPoint x="382.5" y="250" as="targetPoint" />
          </mxGeometry>
        </mxCell>
        <mxCell id="jA-c9X2n4fFjEjbLf546-25" value="4. Validar archivo" style="text;html=1;align=center;verticalAlign=middle;whiteSpace=wrap;rounded=0;" vertex="1" parent="1">
          <mxGeometry x="351.25" y="355" width="96.25" height="20" as="geometry" />
        </mxCell>
        <mxCell id="jA-c9X2n4fFjEjbLf546-26" value="" style="endArrow=classic;html=1;rounded=0;entryX=1;entryY=1;entryDx=0;entryDy=-5;entryPerimeter=0;exitX=1;exitY=0;exitDx=0;exitDy=5;exitPerimeter=0;edgeStyle=orthogonalEdgeStyle;" edge="1" parent="1">
          <mxGeometry width="50" height="50" relative="1" as="geometry">
            <mxPoint x="313.75" y="355" as="sourcePoint" />
            <mxPoint x="313.75" y="375" as="targetPoint" />
            <Array as="points">
              <mxPoint x="347.5" y="375" />
            </Array>
          </mxGeometry>
        </mxCell>
        <mxCell id="jA-c9X2n4fFjEjbLf546-27" value="alt" style="shape=umlFrame;whiteSpace=wrap;html=1;pointerEvents=0;" vertex="1" parent="1">
          <mxGeometry x="90" y="390" width="422" height="100" as="geometry" />
        </mxCell>
        <mxCell id="jA-c9X2n4fFjEjbLf546-28" value="" style="endArrow=none;dashed=1;html=1;rounded=0;exitX=0.5;exitY=0;exitDx=0;exitDy=0;" edge="1" parent="1" source="jA-c9X2n4fFjEjbLf546-42" target="jA-c9X2n4fFjEjbLf546-21">
          <mxGeometry width="50" height="50" relative="1" as="geometry">
            <mxPoint x="105.25" y="790" as="sourcePoint" />
            <mxPoint x="105" y="675" as="targetPoint" />
            <Array as="points" />
          </mxGeometry>
        </mxCell>
        <mxCell id="jA-c9X2n4fFjEjbLf546-29" value="" style="endArrow=none;dashed=1;html=1;rounded=0;exitX=0.5;exitY=0;exitDx=0;exitDy=0;" edge="1" parent="1" source="jA-c9X2n4fFjEjbLf546-5" target="jA-c9X2n4fFjEjbLf546-32">
          <mxGeometry width="50" height="50" relative="1" as="geometry">
            <mxPoint x="320" y="680" as="sourcePoint" />
            <mxPoint x="310.81999999999994" y="380" as="targetPoint" />
            <Array as="points">
              <mxPoint x="310.82" y="650" />
              <mxPoint x="310.82" y="610" />
              <mxPoint x="310.82" y="580" />
              <mxPoint x="310.82" y="540" />
            </Array>
          </mxGeometry>
        </mxCell>
        <mxCell id="jA-c9X2n4fFjEjbLf546-30" value="9. Notificaci칩n de 칠xito: Contrato cargado correctamente" style="text;html=1;align=center;verticalAlign=middle;whiteSpace=wrap;rounded=0;" vertex="1" parent="1">
          <mxGeometry x="117.5" y="600" width="190" height="20" as="geometry" />
        </mxCell>
        <mxCell id="jA-c9X2n4fFjEjbLf546-31" value="" style="endArrow=open;endSize=12;html=1;rounded=0;fontSize=12;curved=1;entryX=1;entryY=0;entryDx=0;entryDy=5;entryPerimeter=0;dashed=1;" edge="1" parent="1" target="jA-c9X2n4fFjEjbLf546-42">
          <mxGeometry width="160" relative="1" as="geometry">
            <mxPoint x="303" y="625" as="sourcePoint" />
            <mxPoint x="381" y="425" as="targetPoint" />
          </mxGeometry>
        </mxCell>
        <mxCell id="jA-c9X2n4fFjEjbLf546-32" value="" style="html=1;points=[[0,0,0,0,5],[0,1,0,0,-5],[1,0,0,0,5],[1,1,0,0,-5]];perimeter=orthogonalPerimeter;outlineConnect=0;targetShapes=umlLifeline;portConstraint=eastwest;newEdgeStyle={&quot;curved&quot;:0,&quot;rounded&quot;:0};" vertex="1" parent="1">
          <mxGeometry x="306.25" y="350" width="10" height="30" as="geometry" />
        </mxCell>
        <mxCell id="jA-c9X2n4fFjEjbLf546-33" value="[Archivo inv치lido]" style="text;html=1;align=center;verticalAlign=middle;whiteSpace=wrap;rounded=0;" vertex="1" parent="1">
          <mxGeometry x="262.5" y="400" width="103.75" height="20" as="geometry" />
        </mxCell>
        <mxCell id="jA-c9X2n4fFjEjbLf546-34" value="" style="endArrow=none;dashed=1;html=1;rounded=0;" edge="1" parent="1" source="jA-c9X2n4fFjEjbLf546-37">
          <mxGeometry width="50" height="50" relative="1" as="geometry">
            <mxPoint x="309.75" y="550" as="sourcePoint" />
            <mxPoint x="311.75" y="506" as="targetPoint" />
            <Array as="points" />
          </mxGeometry>
        </mxCell>
        <mxCell id="jA-c9X2n4fFjEjbLf546-35" value="7. Confirmaci칩n de guardado" style="text;html=1;align=center;verticalAlign=middle;whiteSpace=wrap;rounded=0;" vertex="1" parent="1">
          <mxGeometry x="312.25" y="550" width="190" height="20" as="geometry" />
        </mxCell>
        <mxCell id="jA-c9X2n4fFjEjbLf546-36" value="" style="endArrow=classic;html=1;rounded=0;entryX=1;entryY=0;entryDx=0;entryDy=5;entryPerimeter=0;" edge="1" parent="1" target="jA-c9X2n4fFjEjbLf546-37">
          <mxGeometry width="50" height="50" relative="1" as="geometry">
            <mxPoint x="503.5" y="575" as="sourcePoint" />
            <mxPoint x="590" y="480" as="targetPoint" />
          </mxGeometry>
        </mxCell>
        <mxCell id="jA-c9X2n4fFjEjbLf546-37" value="&lt;span style=&quot;color: rgb(237, 237, 237); font-family: monospace; font-size: 0px; text-align: start;&quot;&gt;%3CmxGraphModel%3E%3Croot%3E%3CmxCell%20id%3D%220%22%2F%3E%3CmxCell%20id%3D%221%22%20parent%3D%220%22%2F%3E%3CmxCell%20id%3D%222%22%20value%3D%22%22%20style%3D%22html%3D1%3Bpoints%3D%5B%5B0%2C0%2C0%2C0%2C5%5D%2C%5B0%2C1%2C0%2C0%2C-5%5D%2C%5B1%2C0%2C0%2C0%2C5%5D%2C%5B1%2C1%2C0%2C0%2C-5%5D%5D%3Bperimeter%3DorthogonalPerimeter%3BoutlineConnect%3D0%3BtargetShapes%3DumlLifeline%3BportConstraint%3Deastwest%3BnewEdgeStyle%3D%7B%26quot%3Bcurved%26quot%3B%3A0%2C%26quot%3Brounded%26quot%3B%3A0%7D%3B%22%20vertex%3D%221%22%20parent%3D%221%22%3E%3CmxGeometry%20x%3D%2285%22%20y%3D%22280%22%20width%3D%2210%22%20height%3D%2230%22%20as%3D%22geometry%22%2F%3E%3C%2FmxCell%3E%3C%2Froot%3E%3C%2FmxGraphModel%3E&lt;/span&gt;&lt;span style=&quot;color: rgb(237, 237, 237); font-family: monospace; font-size: 0px; text-align: start;&quot;&gt;%3CmxGraphModel%3E%3Croot%3E%3CmxCell%20id%3D%220%22%2F%3E%3CmxCell%20id%3D%221%22%20parent%3D%220%22%2F%3E%3CmxCell%20id%3D%222%22%20value%3D%22%22%20style%3D%22html%3D1%3Bpoints%3D%5B%5B0%2C0%2C0%2C0%2C5%5D%2C%5B0%2C1%2C0%2C0%2C-5%5D%2C%5B1%2C0%2C0%2C0%2C5%5D%2C%5B1%2C1%2C0%2C0%2C-5%5D%5D%3Bperimeter%3DorthogonalPerimeter%3BoutlineConnect%3D0%3BtargetShapes%3DumlLifeline%3BportConstraint%3Deastwest%3BnewEdgeStyle%3D%7B%26quot%3Bcurved%26quot%3B%3A0%2C%26quot%3Brounded%26quot%3B%3A0%7D%3B%22%20vertex%3D%221%22%20parent%3D%221%22%3E%3CmxGeometry%20x%3D%2285%22%20y%3D%22280%22%20width%3D%2210%22%20height%3D%2230%22%20as%3D%22geometry%22%2F%3E%3C%2FmxCell%3E%3C%2Froot%3E%3C%2FmxGraphModel%3E&lt;/span&gt;" style="html=1;points=[[0,0,0,0,5],[0,1,0,0,-5],[1,0,0,0,5],[1,1,0,0,-5]];perimeter=orthogonalPerimeter;outlineConnect=0;targetShapes=umlLifeline;portConstraint=eastwest;newEdgeStyle={&quot;curved&quot;:0,&quot;rounded&quot;:0};" vertex="1" parent="1">
          <mxGeometry x="306.25" y="570" width="10" height="30" as="geometry" />
        </mxCell>
        <mxCell id="jA-c9X2n4fFjEjbLf546-38" value="6. Guardar contrato con metadatos" style="text;html=1;align=center;verticalAlign=middle;whiteSpace=wrap;rounded=0;" vertex="1" parent="1">
          <mxGeometry x="314.75" y="500" width="170" height="20" as="geometry" />
        </mxCell>
        <mxCell id="jA-c9X2n4fFjEjbLf546-39" value="" style="endArrow=classic;html=1;rounded=0;entryX=0;entryY=0;entryDx=0;entryDy=5;entryPerimeter=0;" edge="1" parent="1" target="jA-c9X2n4fFjEjbLf546-40">
          <mxGeometry width="50" height="50" relative="1" as="geometry">
            <mxPoint x="308.5" y="525" as="sourcePoint" />
            <mxPoint x="583.5" y="520" as="targetPoint" />
          </mxGeometry>
        </mxCell>
        <mxCell id="jA-c9X2n4fFjEjbLf546-40" value="" style="html=1;points=[[0,0,0,0,5],[0,1,0,0,-5],[1,0,0,0,5],[1,1,0,0,-5]];perimeter=orthogonalPerimeter;outlineConnect=0;targetShapes=umlLifeline;portConstraint=eastwest;newEdgeStyle={&quot;curved&quot;:0,&quot;rounded&quot;:0};" vertex="1" parent="1">
          <mxGeometry x="496" y="520" width="10" height="30" as="geometry" />
        </mxCell>
        <mxCell id="jA-c9X2n4fFjEjbLf546-41" value="" style="endArrow=none;dashed=1;html=1;rounded=0;exitX=0.5;exitY=0;exitDx=0;exitDy=0;" edge="1" parent="1" source="jA-c9X2n4fFjEjbLf546-4" target="jA-c9X2n4fFjEjbLf546-42">
          <mxGeometry width="50" height="50" relative="1" as="geometry">
            <mxPoint x="105" y="690" as="sourcePoint" />
            <mxPoint x="105" y="380" as="targetPoint" />
            <Array as="points" />
          </mxGeometry>
        </mxCell>
        <mxCell id="jA-c9X2n4fFjEjbLf546-42" value="&lt;span style=&quot;color: rgb(237, 237, 237); font-family: monospace; font-size: 0px; text-align: start;&quot;&gt;%3CmxGraphModel%3E%3Croot%3E%3CmxCell%20id%3D%220%22%2F%3E%3CmxCell%20id%3D%221%22%20parent%3D%220%22%2F%3E%3CmxCell%20id%3D%222%22%20value%3D%22%22%20style%3D%22html%3D1%3Bpoints%3D%5B%5B0%2C0%2C0%2C0%2C5%5D%2C%5B0%2C1%2C0%2C0%2C-5%5D%2C%5B1%2C0%2C0%2C0%2C5%5D%2C%5B1%2C1%2C0%2C0%2C-5%5D%5D%3Bperimeter%3DorthogonalPerimeter%3BoutlineConnect%3D0%3BtargetShapes%3DumlLifeline%3BportConstraint%3Deastwest%3BnewEdgeStyle%3D%7B%26quot%3Bcurved%26quot%3B%3A0%2C%26quot%3Brounded%26quot%3B%3A0%7D%3B%22%20vertex%3D%221%22%20parent%3D%221%22%3E%3CmxGeometry%20x%3D%2285%22%20y%3D%22280%22%20width%3D%2210%22%20height%3D%2230%22%20as%3D%22geometry%22%2F%3E%3C%2FmxCell%3E%3C%2Froot%3E%3C%2FmxGraphModel%3E&lt;/span&gt;&lt;span style=&quot;color: rgb(237, 237, 237); font-family: monospace; font-size: 0px; text-align: start;&quot;&gt;%3CmxGraphModel%3E%3Croot%3E%3CmxCell%20id%3D%220%22%2F%3E%3CmxCell%20id%3D%221%22%20parent%3D%220%22%2F%3E%3CmxCell%20id%3D%222%22%20value%3D%22%22%20style%3D%22html%3D1%3Bpoints%3D%5B%5B0%2C0%2C0%2C0%2C5%5D%2C%5B0%2C1%2C0%2C0%2C-5%5D%2C%5B1%2C0%2C0%2C0%2C5%5D%2C%5B1%2C1%2C0%2C0%2C-5%5D%5D%3Bperimeter%3DorthogonalPerimeter%3BoutlineConnect%3D0%3BtargetShapes%3DumlLifeline%3BportConstraint%3Deastwest%3BnewEdgeStyle%3D%7B%26quot%3Bcurved%26quot%3B%3A0%2C%26quot%3Brounded%26quot%3B%3A0%7D%3B%22%20vertex%3D%221%22%20parent%3D%221%22%3E%3CmxGeometry%20x%3D%2285%22%20y%3D%22280%22%20width%3D%2210%22%20height%3D%2230%22%20as%3D%22geometry%22%2F%3E%3C%2FmxCell%3E%3C%2Froot%3E%3C%2FmxGraphModel%3E&lt;/span&gt;" style="html=1;points=[[0,0,0,0,5],[0,1,0,0,-5],[1,0,0,0,5],[1,1,0,0,-5]];perimeter=orthogonalPerimeter;outlineConnect=0;targetShapes=umlLifeline;portConstraint=eastwest;newEdgeStyle={&quot;curved&quot;:0,&quot;rounded&quot;:0};" vertex="1" parent="1">
          <mxGeometry x="100" y="620" width="10" height="30" as="geometry" />
        </mxCell>
        <mxCell id="jA-c9X2n4fFjEjbLf546-43" value="" style="html=1;points=[[0,0,0,0,5],[0,1,0,0,-5],[1,0,0,0,5],[1,1,0,0,-5]];perimeter=orthogonalPerimeter;outlineConnect=0;targetShapes=umlLifeline;portConstraint=eastwest;newEdgeStyle={&quot;curved&quot;:0,&quot;rounded&quot;:0};" vertex="1" parent="1">
          <mxGeometry x="304.75" y="305" width="10" height="30" as="geometry" />
        </mxCell>
        <mxCell id="jA-c9X2n4fFjEjbLf546-44" value="" style="endArrow=classic;html=1;rounded=0;entryX=0;entryY=0;entryDx=0;entryDy=5;entryPerimeter=0;" edge="1" parent="1" target="jA-c9X2n4fFjEjbLf546-43">
          <mxGeometry width="50" height="50" relative="1" as="geometry">
            <mxPoint x="104.75" y="309" as="sourcePoint" />
            <mxPoint x="436.75" y="215" as="targetPoint" />
          </mxGeometry>
        </mxCell>
        <mxCell id="jA-c9X2n4fFjEjbLf546-45" value="4. Adjuntar archivo PDF" style="text;html=1;align=center;verticalAlign=middle;whiteSpace=wrap;rounded=0;" vertex="1" parent="1">
          <mxGeometry x="119.75" y="285" width="170" height="20" as="geometry" />
        </mxCell>
        <mxCell id="jA-c9X2n4fFjEjbLf546-46" style="edgeStyle=none;curved=1;rounded=0;orthogonalLoop=1;jettySize=auto;html=1;entryX=1;entryY=0.25;entryDx=0;entryDy=0;fontSize=12;startSize=8;endSize=8;" edge="1" parent="1" source="jA-c9X2n4fFjEjbLf546-33" target="jA-c9X2n4fFjEjbLf546-33">
          <mxGeometry relative="1" as="geometry" />
        </mxCell>
      </root>
    </mxGraphModel>
  </diagram>
</mxfile>
